# xmcd
#
# Track frame offsets:
#	150
#	25950
#	59325
#	84300
#	94050
#	121680
#	155400
#	173775
#	207780
#	227925
#	297825
#
# Disc length: 4377 seconds
#
# Revision: 0
# Processed by: cddbd v1.5.1PL0 Copyright (c) Steve Scherf et al.
# Submitted via: EasyCDDAExtractor 8.2.1.1
#
DISCID=8a11170b
DTITLE=Maylee Thomas - Live At The Palace
DYEAR=1999
DGENRE=Blues
TTITLE0=Let It Rain
TTITLE1=Wrong Man
TTITLE2=Rhythm Of The Blues
TTITLE3=Passing Lullaby
TTITLE4=Blood Is Thicker Than Water
TTITLE5=Soul Shine
TTITLE6=So Far Down
TTITLE7=Can't Always Get What You Want (Jagger)
TTITLE8=Not Too Late
TTITLE9=Purple Rain - Spiritual Ode - Amazing Grace (Prince)
TTITLE10=Can't Find My Way Home (Winwood)
EXTD=
EXTT0=
EXTT1=
EXTT2=
EXTT3=
EXTT4=
EXTT5=
EXTT6=
EXTT7=
EXTT8=
EXTT9=
EXTT10=
PLAYORDER=
